<svg xmlns="http://www.w3.org/2000/svg" width="40" height="40" viewBox="0 0 40 40" fill="none">
  <rect width="40" height="40" rx="4" fill="#FF9900"/>
  <path d="M23.6338 20.4998C23.6338 22.4998 23.7338 24.1998 22.9338 25.8998C22.2338 27.3998 21.0338 28.3998 19.6338 28.3998C17.7338 28.3998 16.6338 26.8998 16.6338 24.6998C16.6338 20.5998 19.9338 19.7998 23.6338 19.7998V20.4998ZM27.1338 28.0998C26.9338 28.2998 26.6338 28.2998 26.4338 28.0998C25.3338 27.1998 25.1338 26.7998 24.5338 25.9998C22.7338 27.9998 21.4338 28.5998 18.9338 28.5998C16.0338 28.5998 13.8338 26.7998 13.8338 23.1998C13.8338 20.3998 15.2338 18.4998 17.3338 17.4998C19.1338 16.6998 21.6338 16.4998 23.6338 16.2998V15.7998C23.6338 14.9998 23.7338 14.0998 23.2338 13.3998C22.8338 12.7998 22.0338 12.4998 21.3338 12.4998C20.0338 12.4998 18.9338 13.1998 18.6338 14.5998C18.5338 14.8998 18.3338 15.1998 18.0338 15.1998L14.7338 14.8998C14.4338 14.7998 14.1338 14.5998 14.2338 14.1998C15.0338 10.7998 18.2338 9.7998 21.1338 9.7998C22.6338 9.7998 24.6338 10.1998 25.8338 11.3998C27.3338 12.8998 27.1338 14.8998 27.1338 17.0998V22.9998C27.1338 24.5998 27.8338 25.2998 28.5338 26.1998C28.7338 26.4998 28.8338 26.8998 28.5338 27.0998C27.8338 27.6998 26.5338 28.6998 25.8338 29.2998L27.1338 28.0998Z" fill="white"/>
</svg>
