<svg xmlns="http://www.w3.org/2000/svg" width="40" height="40" viewBox="0 0 40 40" fill="none">
  <rect width="40" height="40" rx="4" fill="#CC0000"/>
  <path d="M20 10C14.4772 10 10 14.4772 10 20C10 25.5228 14.4772 30 20 30C25.5228 30 30 25.5228 30 20C30 14.4772 25.5228 10 20 10ZM20 13.5294C23.0147 13.5294 25.4706 15.9853 25.4706 19C25.4706 22.0147 23.0147 24.4706 20 24.4706C16.9853 24.4706 14.5294 22.0147 14.5294 19C14.5294 15.9853 16.9853 13.5294 20 13.5294ZM20 16.4706C18.6176 16.4706 17.4706 17.6176 17.4706 19C17.4706 20.3824 18.6176 21.5294 20 21.5294C21.3824 21.5294 22.5294 20.3824 22.5294 19C22.5294 17.6176 21.3824 16.4706 20 16.4706Z" fill="white"/>
</svg>
