<svg xmlns="http://www.w3.org/2000/svg" width="40" height="40" viewBox="0 0 40 40" fill="none">
  <rect width="40" height="40" rx="4" fill="#0071CE"/>
  <path d="M20 10C14.4772 10 10 14.4772 10 20C10 25.5228 14.4772 30 20 30C25.5228 30 30 25.5228 30 20C30 14.4772 25.5228 10 20 10ZM24.1177 15.2353L25.2941 15.2353L23.5294 21.1765H22.3529L24.1177 15.2353ZM20.5882 15.2353H21.7647L20 21.1765H18.8235L20.5882 15.2353ZM17.0588 15.2353H18.2353L16.4706 21.1765H15.2941L17.0588 15.2353ZM14.7059 22.3529H15.8824L15.2941 24.7059H14.1176L14.7059 22.3529ZM18.2353 22.3529H19.4118L18.8235 24.7059H17.6471L18.2353 22.3529ZM21.7647 22.3529H22.9412L22.3529 24.7059H21.1765L21.7647 22.3529ZM25.2941 22.3529H26.4706L25.8824 24.7059H24.7059L25.2941 22.3529Z" fill="white"/>
</svg>
